<svg width="2521" height="585" viewBox="0 0 2521 585" fill="none" xmlns="http://www.w3.org/2000/svg">
<path d="M1975.17 473C1953.08 473 1933.93 470.927 1917.7 466.78C1901.82 462.979 1889.57 456.241 1880.94 446.566C1872.66 436.545 1868.51 422.55 1868.51 404.582C1868.51 401.127 1868.69 397.498 1869.03 393.697C1869.38 389.896 1869.9 385.923 1870.59 381.776L1891.3 266.191H1795.65L1808.59 193.109H1908.9L1946.18 110.178H2035.23L2020.22 193.109H2098.4L2085.46 266.191H2007.27L1991.22 357.934C1990.88 360.352 1990.53 362.771 1990.19 365.19C1989.84 367.263 1989.67 369.337 1989.67 371.41C1989.67 380.74 1992.6 387.823 1998.47 392.661C2004.34 397.498 2014.7 399.917 2029.54 399.917H2062.16L2050.77 463.152C2045.59 464.88 2038.17 466.435 2028.5 467.817C2018.84 469.545 2009.17 470.754 1999.51 471.445C1989.84 472.482 1981.73 473 1975.17 473Z" fill="#777777"/>
<path d="M2264.41 473C2227.83 473 2195.9 468.853 2168.63 460.56C2141.36 452.267 2120.13 439.482 2104.94 422.205C2090.1 404.582 2082.68 382.294 2082.68 355.342C2082.68 332.881 2086.13 312.667 2093.03 294.699C2099.94 276.73 2109.6 261.008 2122.03 247.532C2134.8 233.71 2149.99 222.48 2167.59 213.841C2185.2 204.857 2204.7 198.119 2226.1 193.627C2247.5 189.135 2270.11 186.889 2293.93 186.889C2330.86 186.889 2362.44 191.035 2388.68 199.328C2415.25 207.276 2435.62 219.543 2449.77 236.129C2463.92 252.715 2471 274.139 2471 300.4C2471 304.892 2470.65 310.767 2469.96 318.023C2469.27 325.279 2467.55 335.819 2464.79 349.64H2203.32C2202.97 351.368 2202.8 353.096 2202.8 354.824C2202.8 356.206 2202.8 357.761 2202.8 359.488C2202.8 370.2 2205.22 379.184 2210.05 386.441C2215.23 393.352 2222.65 398.535 2232.31 401.99C2242.32 405.446 2254.58 407.174 2269.07 407.174C2279.43 407.174 2288.75 406.137 2297.03 404.064C2305.66 401.99 2312.91 399.226 2318.78 395.771C2324.99 391.97 2329.82 387.823 2333.28 383.331C2337.07 378.839 2339.49 374.174 2340.52 369.336H2460.64C2457.88 386.614 2450.63 401.818 2438.9 414.948C2427.51 427.734 2412.84 438.445 2394.89 447.084C2376.94 455.723 2356.75 462.288 2334.31 466.78C2312.22 470.927 2288.92 473 2264.41 473ZM2213.16 296.772H2349.84C2350.19 295.735 2350.36 294.699 2350.36 293.662C2350.36 292.625 2350.36 291.589 2350.36 290.552C2350.36 283.641 2348.12 277.421 2343.63 271.893C2339.49 266.018 2333.28 261.354 2324.99 257.898C2317.05 254.443 2307.22 252.715 2295.48 252.715C2280.29 252.715 2267 254.788 2255.61 258.935C2244.57 262.736 2235.42 268.092 2228.17 275.003C2221.27 281.568 2216.26 288.824 2213.16 296.772Z" fill="#777777"/>
<path d="M991.836 473C966.639 473 945.756 469.544 929.187 462.634C912.619 455.723 900.193 445.529 891.909 432.053C883.625 418.577 879.482 401.99 879.482 382.294C879.482 377.457 879.655 372.446 880 367.263C880.691 361.734 881.553 356.206 882.589 350.677L910.548 193.108H1026.53L1000.64 340.829C1000.29 342.902 999.948 344.975 999.603 347.049C999.603 349.122 999.603 351.195 999.603 353.269C999.603 360.871 1000.98 367.609 1003.74 373.483C1006.85 379.357 1011.51 384.022 1017.72 387.477C1024.28 390.587 1032.57 392.142 1042.58 392.142C1051.9 392.142 1060.7 390.76 1068.98 387.996C1077.27 384.886 1084.69 380.739 1091.25 375.556C1097.8 370.373 1103.15 364.153 1107.3 356.897C1111.78 349.64 1114.72 341.866 1116.1 333.572L1140.95 193.108H1256.93L1208.78 466.78H1114.55V422.205H1109.89C1099.53 434.299 1087.79 444.147 1074.68 451.749C1061.56 459.005 1047.93 464.361 1033.77 467.817C1019.62 471.272 1005.64 473 991.836 473Z" fill="#777777"/>
<path d="M602.04 473C576.842 473 554.406 469.026 534.731 461.079C515.401 452.786 500.041 440.346 488.65 423.76C477.605 406.828 472.082 385.404 472.082 359.488C472.082 341.52 473.808 325.107 477.26 310.248C480.711 295.39 485.544 282.086 491.757 270.338C501.767 250.987 514.366 235.265 529.553 223.171C544.741 210.731 561.655 201.574 580.294 195.7C598.933 189.826 618.09 186.889 637.765 186.889C648.466 186.889 659.856 188.098 671.937 190.517C684.019 192.59 695.582 196.391 706.627 201.92C717.673 207.103 726.475 214.187 733.033 223.171H737.693L757.886 193.108H858.331L849.011 248.05C848.666 249.432 847.631 254.615 845.905 263.6C844.524 272.584 842.626 283.469 840.209 296.254C837.793 309.039 835.377 321.997 832.961 335.128C830.89 347.913 828.991 358.97 827.265 368.3C825.885 377.63 825.194 383.331 825.194 385.404C825.194 389.551 826.23 393.006 828.301 395.771C830.717 398.535 834.169 399.917 838.656 399.917H867.133L855.742 462.634C849.529 465.052 840.555 467.298 828.819 469.372C817.083 471.791 804.829 473 792.058 473C774.109 473 759.957 470.927 749.601 466.78C739.246 462.288 731.48 456.414 726.302 449.157C723.886 445.702 721.988 442.074 720.607 438.273C719.226 434.472 718.191 430.498 717.5 426.351H713.358C696.79 443.974 678.668 456.241 658.993 463.152C639.664 469.717 620.679 473 602.04 473ZM645.014 392.142C656.405 392.142 666.415 390.587 675.044 387.478C683.673 384.022 690.922 379.53 696.79 374.001C703.003 368.473 707.835 362.08 711.287 354.824C715.084 347.567 717.673 339.792 719.054 331.499C719.399 328.735 719.571 326.489 719.571 324.761C719.917 323.033 720.089 321.478 720.089 320.096C720.434 318.369 720.607 316.814 720.607 315.431C720.607 306.447 718.708 298.327 714.911 291.07C711.46 283.814 705.764 278.113 697.825 273.966C690.232 269.819 679.876 267.746 666.76 267.746C651.917 267.746 639.319 270.511 628.963 276.039C618.953 281.222 611.014 288.133 605.146 296.772C599.624 305.411 595.827 314.913 593.756 325.279C593.065 329.772 592.375 333.4 591.685 336.164C591.339 338.583 591.167 340.656 591.167 342.384C591.167 344.112 591.167 345.667 591.167 347.049C591.167 359.834 595.309 370.546 603.593 379.184C612.222 387.823 626.029 392.142 645.014 392.142Z" fill="#777777"/>
<path d="M1789.09 91H1726.43L1714 160.973H1714.02L1538.86 324.242L1646.04 466.78H1506.76L1451.36 384.886H1448.26L1365.93 466.78H1220.96L1380.95 321.651L1281.54 193.108H1421.85L1468.97 261.526H1472.07L1644.13 90.9883H1789.11L1789.09 91ZM1776.46 466.78H1661L1708.63 193.108H1824.61L1776.46 466.78ZM1829.98 160.973H1714.02L1789.09 91H1842.4L1829.98 160.973Z" fill="#777777"/>
<path d="M1829.98 160.973H1714.02L1789.09 91H1842.4L1829.98 160.973Z" fill="#3550EC"/>
<path d="M330.277 466.78H199.801L186.395 421.177H243.969L265.592 382.302H174.966L163.537 343.426H285.135V343.421H287.302C291.444 335.473 296.277 326.316 301.8 315.95C307.668 305.584 313.363 295.39 318.886 285.369C324.754 275.348 329.759 266.883 333.901 259.972L426.58 110.178H566.375L330.277 466.78ZM267.499 265.676C268.589 270.256 269.842 275.956 271.252 282.777C272.73 289.683 274.206 296.941 275.685 304.551H152.108L140.68 265.676H267.499ZM257.476 226.801H129.251L117.823 187.928H247.398L257.476 226.801ZM237.32 149.053H106.395L94.9658 110.178H227.242L237.32 149.053Z" fill="#777777"/>
</svg>
